<?xml version="1.0" standalone="no"?>
<!DOCTYPE svg PUBLIC "-//W3C//DTD SVG 20010904//EN"
 "http://www.w3.org/TR/2001/REC-SVG-20010904/DTD/svg10.dtd">
<svg version="1.0" xmlns="http://www.w3.org/2000/svg"
 width="512.000000pt" height="512.000000pt" viewBox="0 0 512.000000 512.000000"
 preserveAspectRatio="xMidYMid meet">

<g transform="translate(0.000000,512.000000) scale(0.100000,-0.100000)"
fill="#557a95" stroke="#F3F3F3">
<path d="M2465 5113 c-469 -17 -935 -168 -1322 -429 -162 -109 -255 -185 -389
-319 -193 -193 -334 -386 -461 -631 -194 -375 -284 -750 -284 -1179 0 -428 88
-790 285 -1170 387 -750 1111 -1255 1951 -1361 170 -21 478 -21 640 1 777 104
1456 546 1860 1211 393 646 478 1451 230 2164 -189 542 -576 1025 -1064 1330
-425 264 -942 402 -1446 383z m-745 -1659 c164 -31 305 -96 410 -191 l51 -46
-63 -64 c-42 -42 -70 -63 -86 -63 -14 0 -44 18 -72 43 -140 126 -375 188 -576
153 -397 -69 -656 -412 -607 -805 23 -177 82 -299 208 -427 66 -67 97 -89 175
-127 128 -63 201 -81 335 -81 138 -1 233 20 346 77 l84 42 3 303 2 302 120 0
120 0 0 -340 0 -339 -52 -39 c-146 -109 -301 -163 -516 -181 -215 -19 -415 13
-579 94 -300 148 -473 416 -490 760 -11 240 42 416 184 603 124 163 351 295
570 332 87 14 345 11 433 -6z m1555 -627 l370 -633 189 325 c104 179 269 463
366 631 l178 305 106 3 106 3 0 -891 0 -890 -120 0 -120 0 -2 653 -3 654 -316
-541 -316 -541 -62 -3 c-36 -2 -68 2 -76 8 -8 6 -155 251 -327 544 l-313 533
-3 -654 -2 -653 -120 0 -120 0 0 890 0 890 108 0 107 -1 370 -632z"/>
</g>
</svg>
